<svg xmlns="http://www.w3.org/2000/svg" id="Laag_2" viewBox="0 0 965.72 170.88"><defs><style>.cls-1{fill:#1d1d1b;}.cls-2{fill:#606db2;}.cls-2,.cls-3,.cls-4,.cls-5{fill-rule:evenodd;}.cls-3{fill:#15b0a9;}.cls-4{fill:#fff;}.cls-5{fill:#ffcf00;}</style></defs><g id="Laag_1-2"><g><polygon class="cls-3" points="0 16.93 29.8 102.52 88.73 69.29 88.73 0 0 16.93 0 16.93"></polygon><polygon class="cls-5" points="177.46 16.93 147.86 102.3 88.73 69.29 88.73 0 177.46 16.93 177.46 16.93"></polygon><polygon class="cls-2" points="88.63 170.88 29.7 102.52 88.63 69.29 147.76 102.3 88.63 170.88 88.63 170.88"></polygon><path class="cls-4" d="M88.73,11.83c7.45,0,13.51,6.05,13.51,13.51s-6.05,13.51-13.51,13.51-13.51-6.05-13.51-13.51,6.05-13.51,13.51-13.51h0Z"></path><path class="cls-4" d="M88.73,46.09L44.6,22.82c-1.23-.65-2.74-.32-3.59,.79-.85,1.1-.77,2.65,.17,3.67l32.71,35.3-13.01,58.99c-.3,1.35,.42,2.72,1.69,3.25,1.28,.53,2.75,.06,3.49-1.11l22.66-35.69,22.66,35.69c.75,1.19,2.26,1.65,3.55,1.08,1.29-.56,1.97-1.98,1.61-3.34l-15.71-58.86,35.36-35.23c1-.99,1.12-2.57,.28-3.71-.84-1.14-2.38-1.49-3.62-.83,0,0-36.64,19.32-44.13,23.28h0Z"></path><path class="cls-1" d="M276.22,65.84h-12.67c-1.71-7.74-4.57-13.32-8.59-16.74-4.02-3.42-9.4-5.13-16.13-5.13-8.34,0-14.55,2.86-18.62,8.59-4.07,5.73-6.11,14.78-6.11,27.14v11.46c0,12.36,2.04,21.41,6.11,27.14,4.07,5.73,10.28,8.59,18.62,8.59,6.84,0,12.24-1.76,16.21-5.28,3.97-3.52,6.81-9.05,8.52-16.59h12.51c-1.51,11.16-5.48,19.55-11.91,25.18-6.43,5.63-14.88,8.44-25.33,8.44-25.13,0-37.69-15.83-37.69-47.49v-11.46c0-31.66,12.56-47.49,37.69-47.49,10.55,0,19.02,2.84,25.41,8.52,6.38,5.68,10.38,14.05,11.99,25.1h0Z"></path><path class="cls-1" d="M369.7,79.71v11.46c0,31.66-12.56,47.49-37.69,47.49s-37.69-15.83-37.69-47.49v-11.46c0-31.66,12.57-47.49,37.69-47.49s37.69,15.83,37.69,47.49h0Zm-62.42,0v11.46c0,12.36,2.04,21.41,6.11,27.14,4.07,5.73,10.28,8.59,18.62,8.59s14.55-2.86,18.62-8.59c4.07-5.73,6.11-14.78,6.11-27.14v-11.46c0-12.36-2.04-21.41-6.11-27.14-4.07-5.73-10.28-8.59-18.62-8.59s-14.55,2.86-18.62,8.59c-4.07,5.73-6.11,14.78-6.11,27.14h0Z"></path><path class="cls-1" d="M446.6,91.32l23.22,46.14h-14.48l-21.71-43.88h-24.58v43.88h-12.97V33.42h33.17c12.26,0,21.64,2.56,28.12,7.69,6.48,5.13,9.73,12.61,9.73,22.47,0,14.48-6.84,23.72-20.51,27.74h0Zm-37.54-46.14v36.64h20.2c8.85,0,15.2-1.43,19.07-4.3,3.87-2.86,5.81-7.51,5.81-13.95s-1.94-11.23-5.81-14.1c-3.87-2.87-10.23-4.3-19.07-4.3h-20.2Z"></path><path class="cls-1" d="M526.36,97.8h-20.2v39.65h-12.97V33.42h33.17c11.96,0,21.26,2.84,27.89,8.52,6.63,5.68,9.95,13.59,9.95,23.75s-3.32,17.92-9.95,23.6c-6.63,5.68-15.93,8.52-27.89,8.52h0Zm-20.2-52.62v40.86h20.2c16.58,0,24.88-6.79,24.88-20.35s-8.29-20.51-24.88-20.51h-20.2Z"></path><path class="cls-1" d="M650.3,95.24V33.42h12.97v61.67c0,14.57-3.24,25.48-9.73,32.72-6.48,7.24-15.81,10.86-27.97,10.86s-21.49-3.59-27.97-10.78c-6.48-7.19-9.72-18.07-9.72-32.64V33.42h12.97v61.82c0,10.96,2.04,18.97,6.11,24.05,4.07,5.08,10.28,7.61,18.62,7.61s14.55-2.54,18.62-7.61c4.07-5.08,6.11-13.09,6.11-24.05h0Z"></path><path class="cls-1" d="M759.16,49.25l-10.1,7.24c-3.42-4.42-6.96-7.61-10.63-9.57s-8.37-2.94-14.1-2.94c-6.33,0-11.28,1.38-14.85,4.15-3.57,2.76-5.35,6.81-5.35,12.14,0,5.63,1.91,9.85,5.73,12.66,3.82,2.82,10.1,5.03,18.85,6.64,11.16,1.91,19.32,5.18,24.5,9.8s7.77,11.36,7.77,20.2c0,3.62-.63,7.06-1.89,10.33-1.26,3.27-3.19,6.36-5.8,9.27-2.61,2.92-6.26,5.23-10.93,6.94-4.67,1.71-10.13,2.56-16.36,2.56-16.89,0-29.25-5.68-37.09-17.04l10.71-7.39c3.82,4.62,7.64,7.89,11.46,9.8,3.82,1.91,8.79,2.86,14.93,2.86,14.67,0,22.01-5.58,22.01-16.74,0-5.43-1.83-9.67-5.5-12.74-3.67-3.07-10.03-5.3-19.07-6.71-21.51-3.32-32.27-13.47-32.27-30.46,0-8.44,2.89-15.23,8.67-20.35,5.78-5.13,14.1-7.69,24.95-7.69,15.48,0,26.94,5.68,34.38,17.04h0Z"></path><polygon class="cls-1" points="809.82 137.46 774.24 33.42 801.53 33.42 820.98 96.29 840.58 33.42 867.87 33.42 832.28 137.46 809.82 137.46 809.82 137.46"></polygon><path class="cls-1" d="M944.91,93.73l20.81,43.73h-27.44l-17.34-39.35h-12.97v39.35h-25.03V33.42h39.2c12.36,0,22.01,2.82,28.95,8.44,6.94,5.63,10.4,13.72,10.4,24.28,0,13.37-5.53,22.57-16.59,27.59h0Zm-36.94-39.5v23.07h11.16c6.13,0,10.55-.78,13.27-2.34,2.71-1.56,4.07-4.5,4.07-8.82s-1.41-7.51-4.22-9.27c-2.81-1.76-7.19-2.64-13.12-2.64h-11.16Z"></path></g></g></svg>