<svg width="160" height="27" viewBox="0 0 160 27" fill="none" xmlns="http://www.w3.org/2000/svg">
<g clip-path="url(#clip0_12_62)">
<path d="M29.7816 26.8493V6.06087H32.2539L32.8565 7.75845H33.0078C33.4301 7.21246 35.0891 5.69727 37.5614 5.69727C41.331 5.69727 44.5874 9.06087 44.5874 13.7281C44.5874 18.3952 41.331 21.7588 37.5614 21.7588C35.2392 21.7588 33.5813 20.3348 33.2486 19.7888H33.0973V26.8493H29.7804H29.7816ZM41.3007 13.7269C41.3007 10.7877 39.4008 8.78729 37.1996 8.78729C34.9984 8.78729 33.0985 10.7877 33.0985 13.7269C33.0985 16.6661 34.9984 18.6665 37.1996 18.6665C39.4008 18.6665 41.3007 16.6661 41.3007 13.7269Z" fill="white"/>
<path d="M46.9713 21.3942V0.182617H50.2883V7.75861H50.4395C50.8921 7.0922 52.4604 5.69743 54.6919 5.69743C58.0693 5.69743 60.6021 8.33383 60.6021 12.3942V21.3942H57.3154V12.6362C57.3154 10.3634 55.8378 8.78745 53.817 8.78745C51.7961 8.78745 50.2883 10.3634 50.2883 12.6362V21.3942H46.9713Z" fill="white"/>
<path d="M72.9659 6.06104H76.3736L70.041 22.243C68.5937 25.9094 67.1464 27.0002 65.2163 27.0002C64.5229 27.0002 63.9493 26.8483 63.5875 26.6974V23.667C63.8888 23.819 64.2204 23.8787 64.6125 23.8787C65.7584 23.8787 66.5123 23.3935 67.0557 21.9695L67.4175 21.0002L61.4165 6.06104H64.9754L69.0463 16.9398L72.9671 6.06104H72.9659Z" fill="white"/>
<path d="M76.3445 16.7279H79.601C79.722 18.0607 80.7772 19.0007 82.4049 19.0007C84.0325 19.0007 84.8772 18.1519 84.8772 17.1827C84.8772 14.1219 76.7355 15.5166 76.7355 10.2134C76.7355 7.69863 78.7563 5.69824 82.2536 5.69824C85.7509 5.69824 87.802 7.87985 87.9835 10.577H84.7271C84.5758 9.30385 83.7917 8.45623 82.2548 8.45623C80.7179 8.45623 80.0536 9.21383 80.0536 10.093C80.0536 13.0018 88.1953 11.6082 88.1953 17.0318C88.1953 19.6986 86.1453 21.7598 82.4049 21.7598C78.6644 21.7598 76.4946 19.4566 76.3434 16.729H76.3445V16.7279Z" fill="white"/>
<path d="M90.0951 1.96999C90.0951 0.848792 90.97 0 92.0555 0C93.141 0 93.9856 0.848792 93.9856 1.96999C93.9856 3.09119 93.141 3.90959 92.0555 3.90959C90.97 3.90959 90.0951 3.0608 90.0951 1.96999ZM90.3976 21.394V6.06079H93.7145V21.394H90.3976Z" fill="white"/>
<path d="M97.8157 16.4241V9.06089H95.3131V6.24327H96.3986C97.6051 6.24327 98.238 5.60726 98.238 4.42527V2.12207H101.102V6.06205H104.419V9.06205H101.102V16.1529C101.102 17.8504 102.008 18.6373 103.364 18.6373C103.756 18.6373 104.118 18.5765 104.419 18.4257V21.4561C104.027 21.608 103.423 21.7589 102.61 21.7589C99.8354 21.7589 97.8157 19.7889 97.8157 16.4253V16.4241Z" fill="white"/>
<path d="M106.652 21.3941V6.06087H109.124L109.727 7.75845H109.878C110.301 7.15284 111.687 5.69727 113.648 5.69727C114.191 5.69727 114.523 5.72766 114.915 5.81886V9.15206C114.492 9.06087 114.1 9.03047 113.558 9.03047C111.448 9.03047 109.969 10.4545 109.969 12.9097V21.3941H106.652Z" fill="white"/>
<path d="M127.942 11.9393V21.3941H125.469L124.867 19.6673H124.717C124.113 20.4553 122.696 21.7588 120.254 21.7588C117.268 21.7588 115.128 19.6977 115.128 17.1828C115.128 14.1221 118.022 12.1825 122.214 12.1825H124.656V11.6669C124.656 9.81847 123.54 8.69727 121.822 8.69727C120.104 8.69727 119.319 9.72727 119.138 10.7281H115.821C116.092 8.15245 118.173 5.69727 121.852 5.69727C125.531 5.69727 127.944 8.21207 127.944 11.9393H127.942ZM124.655 15.5461V14.5768H122.243C119.65 14.5768 118.443 15.5168 118.443 16.9104C118.443 18.0924 119.288 18.9412 120.946 18.9412C123.208 18.9412 124.655 17.3652 124.655 15.5472V15.5461Z" fill="white"/>
<path d="M130.024 13.7266C130.024 9.24179 133.462 5.6958 137.593 5.6958C141.393 5.6958 144.047 8.6958 144.65 11.6958H141.333C140.971 10.453 139.764 8.78699 137.593 8.78699C135.241 8.78699 133.311 10.8178 133.311 13.7266C133.311 16.6354 135.241 18.6662 137.593 18.6662C139.764 18.6662 140.971 16.999 141.333 15.7574H144.65C144.047 18.727 141.393 21.7574 137.593 21.7574C133.462 21.7574 130.024 18.181 130.024 13.7266Z" fill="white"/>
<path d="M159.999 21.3942H155.867L150.168 14.1514V21.3942H146.851V0.182617H150.168V12.849L155.506 6.06103H159.336L153.456 13.3342L160 21.3954H159.999V21.3942Z" fill="white"/>
<path fill-rule="evenodd" clip-rule="evenodd" d="M12.8128 3.68994H18.0669C18.3578 3.68994 18.6288 3.83725 18.7894 4.08043L24.8102 13.2488C25.001 13.5399 25.001 13.9164 24.8102 14.2075L18.7894 23.3758C18.6288 23.6202 18.3578 23.7663 18.0669 23.7663H12.8128C12.1229 23.7663 11.7099 22.9959 12.0904 22.4171L17.4794 14.2075C17.6702 13.9164 17.6702 13.5399 17.4794 13.2488L12.0904 5.03912C11.7111 4.4604 12.1241 3.68994 12.8128 3.68994Z" fill="url(#paint0_linear_12_62)"/>
<path fill-rule="evenodd" clip-rule="evenodd" d="M0.8679 3.68994H6.12196C6.41282 3.68994 6.6839 3.83725 6.84446 4.08043L12.8652 13.2488C13.056 13.5399 13.056 13.9164 12.8652 14.2075L6.84446 23.3758C6.6839 23.6202 6.41282 23.7663 6.12196 23.7663H0.8679C0.177984 23.7663 -0.235035 22.9959 0.145408 22.4171L5.53443 14.2075C5.72523 13.9164 5.72523 13.5399 5.53443 13.2488L0.144244 5.03912C-0.235035 4.4604 0.177984 3.68994 0.866736 3.68994H0.8679Z" fill="url(#paint1_linear_12_62)"/>
</g>
<defs>
<linearGradient id="paint0_linear_12_62" x1="-8.77815" y1="16.3154" x2="27.7914" y2="12.4469" gradientUnits="userSpaceOnUse">
<stop stop-color="#008977"/>
<stop offset="1" stop-color="#AFF900"/>
</linearGradient>
<linearGradient id="paint1_linear_12_62" x1="-8.91076" y1="15.0528" x2="27.6576" y2="11.1843" gradientUnits="userSpaceOnUse">
<stop stop-color="#008977"/>
<stop offset="1" stop-color="#AFF900"/>
</linearGradient>
<clipPath id="clip0_12_62">
<rect width="160" height="27" fill="white"/>
</clipPath>
</defs>
</svg>
