<svg enable-background="new 0 0 240.6 79.1" viewBox="0 0 240.6 79.1" xmlns="http://www.w3.org/2000/svg"><g fill="#2e86be" transform="translate(226.437 101.879)"><path d="m-142.5-59-3.2-4.7h-3.6v4.7h-3.9v-16.8h7.3c4.5 0 7.3 2.3 7.3 6.1 0 2.5-1.3 4.4-3.5 5.3l3.8 5.4zm-3.6-13.7h-3.2v5.9h3.2c2.4 0 3.6-1.1 3.6-2.9 0-1.9-1.2-3-3.6-3z"/><path d="m-123.2-64.4h-9.8c.4 1.6 1.7 2.6 3.7 2.6 1.4 0 2.4-.4 3.2-1.2l2 2.2c-1.2 1.4-3 2.1-5.3 2.1-4.5 0-7.4-2.8-7.4-6.6 0-3.9 3-6.6 6.9-6.6 3.8 0 6.7 2.5 6.7 6.7.1.1 0 .5 0 .8zm-9.8-2.2h6.4c-.3-1.6-1.5-2.7-3.2-2.7s-3 1-3.2 2.7z"/><path d="m-108.1-71.9-5.4 12.9h-3.9l-5.4-12.9h3.9l3.6 8.8 3.7-8.8c-.1 0 3.5 0 3.5 0z"/><path d="m-95.5-66.4v7.4h-3.5v-1.6c-.7 1.2-2 1.8-3.9 1.8-3 0-4.8-1.7-4.8-3.9 0-2.3 1.6-3.9 5.5-3.9h3c0-1.6-1-2.5-3-2.5-1.4 0-2.8.5-3.7 1.2l-1.3-2.6c1.4-1 3.5-1.6 5.6-1.6 3.8 0 6.1 1.8 6.1 5.7zm-3.8 3.3v-1.3h-2.6c-1.8 0-2.3.6-2.3 1.5s.8 1.6 2.1 1.6c1.3-.1 2.4-.6 2.8-1.8z"/><path d="m-92.2-76.8h3.7v17.8h-3.7z"/><path d="m-85.4-75.8c0-1.2.9-2.1 2.3-2.1s2.3.9 2.3 2c0 1.2-.9 2.2-2.3 2.2s-2.3-1-2.3-2.1zm.5 3.9h3.7v12.9h-3.7z"/><path d="m-64.6-76.8v17.8h-3.6v-1.5c-.9 1.1-2.3 1.7-4 1.7-3.6 0-6.5-2.6-6.5-6.6s2.8-6.6 6.5-6.6c1.6 0 2.9.5 3.9 1.6v-6.3zm-3.6 11.3c0-2.2-1.4-3.6-3.3-3.6s-3.3 1.3-3.3 3.6c0 2.2 1.4 3.6 3.3 3.6 1.8 0 3.3-1.3 3.3-3.6z"/><path d="m-49.7-66.4v7.4h-3.5v-1.6c-.7 1.2-2 1.8-3.9 1.8-3 0-4.8-1.7-4.8-3.9 0-2.3 1.6-3.9 5.5-3.9h3c0-1.6-1-2.5-3-2.5-1.4 0-2.8.5-3.7 1.2l-1.3-2.6c1.4-1 3.5-1.6 5.6-1.6 3.8 0 6.1 1.8 6.1 5.7zm-3.7 3.3v-1.3h-2.6c-1.8 0-2.3.6-2.3 1.5s.8 1.6 2.1 1.6c1.3-.1 2.3-.6 2.8-1.8z"/><path d="m-38-59.6c-.8.6-1.9.8-3 .8-3 0-4.8-1.6-4.8-4.6v-5.3h-2v-2.9h2v-3.1h3.7v3.1h3.2v2.9h-3.2v5.3c0 1.1.6 1.7 1.6 1.7.6 0 1.1-.2 1.5-.5z"/><path d="m-36.3-75.8c0-1.2.9-2.1 2.3-2.1s2.3.9 2.3 2c0 1.2-.9 2.2-2.3 2.2s-2.3-1-2.3-2.1zm.4 3.9h3.7v12.9h-3.7z"/><path d="m-16.1-64.4h-9.8c.4 1.6 1.7 2.6 3.7 2.6 1.4 0 2.4-.4 3.2-1.2l2 2.2c-1.2 1.4-3 2.1-5.3 2.1-4.5 0-7.4-2.8-7.4-6.6 0-3.9 3-6.6 6.9-6.6 3.8 0 6.7 2.5 6.7 6.7.1.1.1.5 0 .8zm-9.8-2.2h6.4c-.3-1.6-1.5-2.7-3.2-2.7s-2.9 1-3.2 2.7z"/><path d="m-14.4-61.2c0-1.4 1-2.3 2.3-2.3s2.3.9 2.3 2.3-1 2.4-2.3 2.4-2.3-1-2.3-2.4z"/><path d="m6-66.4v7.4h-3.7v-6.8c0-2.1-1-3-2.6-3-1.8 0-3.1 1.1-3.1 3.5v6.4h-3.7v-12.9h3.6v1.5c1-1.1 2.5-1.7 4.3-1.7 2.9-.1 5.2 1.6 5.2 5.6z"/><path d="m9.4-76.8h3.7v17.8h-3.7z"/></g><path d="m40.1 62.7-12.1-17.6h-13.4v17.5h-14.6v-63h27.3c16.8 0 27.4 8.7 27.4 22.9 0 9.4-4.8 16.4-13 19.9l14.1 20.2c0 .1-15.7.1-15.7.1zm-13.6-51.2h-11.9v22h11.9c8.9 0 13.4-4.1 13.4-11s-4.5-11-13.4-11z" fill="#232a4c"/><path d="m13.5 72.7h25v6h-25z" fill="#f0580f"/></svg>