<?xml version="1.0" encoding="utf-8"?>
<!-- Generator: Adobe Illustrator 14.0.0, SVG Export Plug-In  -->
<!DOCTYPE svg PUBLIC "-//W3C//DTD SVG 1.1//EN" "http://www.w3.org/Graphics/SVG/1.1/DTD/svg11.dtd" [
	<!ENTITY ns_flows "http://ns.adobe.com/Flows/1.0/">
]>
<svg version="1.1"
	 xmlns="http://www.w3.org/2000/svg" xmlns:xlink="http://www.w3.org/1999/xlink" xmlns:a="http://ns.adobe.com/AdobeSVGViewerExtensions/3.0/"
	 x="0px" y="0px" width="218px" height="218px" viewBox="0 0 218 218" enable-background="new 0 0 218 218" xml:space="preserve">
<defs>
</defs>
<polygon fill="#154273" points="127.7,148 180.7,148 180.7,37.5 127.5,37.5 "/>
<g>
	<defs>
		<rect id="SVGID_1_" width="217.9" height="217.6"/>
	</defs>
	<clipPath id="SVGID_2_">
		<use xlink:href="#SVGID_1_"  overflow="visible"/>
	</clipPath>
	<path clip-path="url(#SVGID_2_)" fill="#FFFFFF" d="M158.9,133.3h-0.6v-1.6h0.6V133.3z M161.5,126.4h-0.6v-1.6h0.6V126.4z
		 M151,123.8c0,0-0.3,0-0.3,0.1c0,0.1,0.1,0,0.3,0.1c0.5,0.1,0.6,0.3,0.9,0.3c0.3,0,0.6-0.2,0.5-0.6c0-0.1-0.1-0.1-0.1,0
		c0,0.2-0.3,0.3-0.5,0.3C151.5,123.9,151.5,123.8,151,123.8 M147.9,125.3c0,0.1,0.6,0.8-0.2,1c0,0,0,0,0,0.1
		c0.6,0.3,0.9-0.2,0.9-0.2c0.3,0.7-0.2,1.1-0.2,1.1c0.1,0.1,0.4,0.3,0.8,0.4c0.2-0.1,0.4-0.3,0.5-0.5c0,0,0.1,0.3,0,0.6
		c1.2,0.1,1.7-0.9,2.6-0.7c0,0,0,0,0,0c0-0.6-0.4-1.7-1.5-1.9c-1.2-0.2-0.9-0.7-0.9-0.7c0.5,0,0.8,0.2,0.8,0.2c0.1-0.1,0-0.3,0-0.3
		c0-0.1,0.1-0.3,0.1-0.3c-0.6,0-0.7-0.1-0.7-0.1c-0.1-0.3,0.1-0.8,1-0.3c0.2-0.2,0.2-0.5,0.2-0.5c0.1,0,0.1-0.1,0.1-0.2
		c0-0.1-0.7-0.5-0.8-0.6c0-0.2-0.3-0.5-1.1-0.4c-0.4,0-0.6-0.1-0.5-0.3c0,0,0,0-0.1,0c-0.1,0.1-0.2,0.3,0.1,0.5
		c0.4,0.2,0.4,0.5,0.4,0.6c0,0.1-0.1,0.1-0.1,0c-0.2-0.6-1-0.7-1.5-0.4c0,0.3,0.4,0.5,0.6,0.5c0.1,0,0.3-0.1,0.3-0.3
		c0-0.1,0-0.1,0.1,0c0.1,0.2-0.2,0.7-0.7,0.4c-0.5,0.5-0.3,1.1-0.2,1.3c0.1,0.4-0.1,0.8-0.5,0.6c0,0,0,0,0,0
		C147.2,125.2,147.5,125.5,147.9,125.3 M150.6,122.9c-0.2,0.3-0.6,0.2-0.7-0.2C150.3,122.6,150.5,122.7,150.6,122.9 M164.9,123.9
		c-0.2,0-0.5-0.1-0.5-0.3c0,0-0.1-0.1-0.1,0c-0.1,0.4,0.2,0.6,0.5,0.6c0.3,0,0.5-0.2,0.9-0.3c0.2,0,0.3,0,0.3-0.1
		c0-0.1-0.3-0.1-0.3-0.1C165.2,123.8,165.1,123.9,164.9,123.9 M169.5,125C169.5,125,169.5,125,169.5,125c-0.4,0.2-0.6-0.2-0.5-0.6
		c0-0.2,0.2-0.8-0.2-1.3c-0.5,0.3-0.8-0.2-0.7-0.4c0-0.1,0.1-0.1,0.1,0c0,0.1,0.2,0.3,0.3,0.3c0.2,0,0.5-0.2,0.6-0.5
		c-0.5-0.3-1.3-0.2-1.5,0.4c0,0.1-0.1,0.1-0.1,0c0-0.1,0-0.4,0.4-0.6c0.3-0.2,0.2-0.4,0.1-0.5c0,0-0.1,0-0.1,0
		c0.1,0.2-0.1,0.3-0.5,0.3c-0.8-0.1-1,0.2-1.1,0.4c-0.2,0-0.8,0.4-0.8,0.6c0,0,0,0.1,0.1,0.2c0,0,0,0.3,0.2,0.5c0.8-0.5,1.1,0,1,0.3
		c0,0-0.1,0.1-0.7,0.1c0,0,0,0.2,0.1,0.3c0,0-0.1,0.2,0,0.3c0,0,0.3-0.2,0.8-0.2c0,0,0.3,0.5-0.9,0.7c-1.2,0.2-1.5,1.3-1.5,1.9
		c0,0,0,0,0,0c0.9-0.2,1.4,0.8,2.6,0.7c-0.1-0.3,0-0.6,0-0.6c0.1,0.3,0.3,0.4,0.5,0.5c0.4-0.1,0.7-0.3,0.8-0.4c0,0-0.5-0.4-0.2-1.1
		c0,0,0.3,0.5,0.9,0.2c0.1,0,0-0.1,0-0.1c-0.8-0.3-0.3-1-0.2-1C169.2,125.5,169.5,125.2,169.5,125 M166.8,122.7
		c-0.1,0.4-0.5,0.5-0.7,0.2C166.2,122.7,166.4,122.6,166.8,122.7 M158.1,115.7c0,0.1,0,0.2,0.1,0.2c0.1,0.1,0.1,0.2,0,0.2
		c0,0-0.1,0-0.2,0c-0.1,0-0.1-0.1-0.2-0.1c-0.2,0-0.3,0.1-0.3,0.2c0,0.1,0.1,0.2,0.3,0.2c0.1,0,0.2,0,0.2-0.1c0.1-0.1,0.2-0.1,0.2,0
		c0,0,0,0.4-0.1,0.7c-0.3,0.1-0.4,0.3-0.4,0.4c0,0.4,0.4,0.6,0.6,0.7c0.2-0.1,0.6-0.3,0.6-0.7c0-0.1-0.1-0.4-0.4-0.4
		c0-0.3-0.1-0.6-0.1-0.7c0,0,0.1,0,0.2,0c0.1,0,0.1,0.1,0.2,0.1c0.2,0,0.3-0.1,0.3-0.2c0-0.1-0.1-0.2-0.3-0.2c-0.1,0-0.2,0-0.2,0.1
		c-0.1,0.1-0.2,0.1-0.2,0c0,0,0-0.1,0-0.2c0-0.1,0.1-0.1,0.1-0.2c0-0.2-0.1-0.3-0.2-0.3C158.2,115.5,158.1,115.6,158.1,115.7
		 M158.3,118.4c-0.2,0-0.4,0.2-0.4,0.4s0.2,0.4,0.4,0.4c0.2,0,0.4-0.2,0.4-0.4S158.6,118.4,158.3,118.4 M158.3,122.5
		c1.7,0,2.7,0.3,2.7,0.3c0-0.9,0-1.4,0.5-1.3c-0.3-0.7,0.9-1,0.9-2c0-0.6-0.4-0.7-0.6-0.7c-0.4,0-0.3,0.3-0.7,0.3c0,0-0.1,0-0.1,0
		c0,0.1,0.1,0.3,0.2,0.3c0.2,0,0.2-0.2,0.4-0.2c0.1,0,0.2,0.1,0.2,0.3c0,0.4-0.3,0.9-0.6,1.2c-0.1-0.1-0.2-0.2-0.3-0.2
		c-0.2,0-0.3,0.2-0.3,0.4c0,0.1,0,0.2,0,0.2c-0.1,0.1-0.2,0.1-0.3,0.1c-0.1,0-0.4-0.1-0.4-0.4c0-0.7,0.9-1.3,0.9-2.2
		c0-0.4-0.3-0.8-0.9-0.8c-0.6,0-0.5,0.6-1.1,0.6c0,0,0,0,0,0c0,0,0.1,0.4,0.4,0.4c0.3,0,0.4-0.5,0.7-0.5c0.1,0,0.2,0.1,0.2,0.4
		c0,0.3-0.1,0.7-0.3,1.1c-0.1-0.1-0.2-0.1-0.3-0.1c-0.2,0-0.4,0.2-0.4,0.5c0,0.2,0.1,0.3,0.2,0.4c-0.1,0.2-0.3,0.3-0.5,0.3
		c-0.4,0-0.5-0.2-0.5-0.4c0-0.3,0.5-0.3,0.5-0.7c0-0.3-0.2-0.4-0.3-0.4c-0.2,0-0.3,0.1-0.3,0.1c0,0-0.1-0.1-0.3-0.1
		c-0.2,0-0.3,0.2-0.3,0.4c0,0.4,0.5,0.5,0.5,0.7c0,0.2-0.2,0.4-0.5,0.4c-0.2,0-0.3-0.1-0.5-0.3c0.1-0.1,0.2-0.3,0.2-0.4
		c0-0.3-0.2-0.5-0.4-0.5c-0.1,0-0.2,0.1-0.3,0.1c-0.2-0.4-0.3-0.9-0.3-1.1c0-0.4,0.1-0.4,0.2-0.4c0.3,0,0.3,0.5,0.7,0.5
		c0.3,0,0.4-0.3,0.4-0.4c0,0,0,0,0,0c-0.5,0-0.4-0.6-1.1-0.6c-0.6,0-0.9,0.4-0.9,0.8c0,0.9,0.9,1.5,0.9,2.2c0,0.3-0.2,0.4-0.4,0.4
		c-0.1,0-0.2,0-0.3-0.1c0-0.1,0-0.1,0-0.2c0-0.2-0.2-0.4-0.4-0.4c-0.1,0-0.2,0.1-0.3,0.2c-0.3-0.3-0.6-0.8-0.6-1.2
		c0-0.2,0.1-0.3,0.2-0.3c0.2,0,0.2,0.2,0.4,0.2c0.2,0,0.2-0.2,0.2-0.3c0,0,0,0-0.1,0c-0.3,0-0.3-0.3-0.7-0.3c-0.1,0-0.6,0.1-0.6,0.7
		c0,1,1.2,1.2,0.9,2c0.5-0.1,0.5,0.4,0.5,1.3C155.6,122.9,156.6,122.5,158.3,122.5 M155.2,123.8c-0.5,0.1-0.8,0.2-1,0.2
		c0-0.2,0.1-0.4,0.3-0.4c0,0,0,0,0-0.1c-0.4-0.3-0.6,0.3-0.6,0.3c-0.1,0-0.4,0-0.4,0.2c0,0.6-1.4,0.9-1.7,1c0.6,0.2,0.8,0.9,0.8,0.9
		c0.4-0.4,0.9-0.8,1-0.8c0.1,0,0.2,0.1,0.2,0.2c0,0,0,0,0,0c0.2-0.3,0.1-0.4,0.1-0.5c0-0.1,0-0.4,0.3-0.3v4l-0.2,0
		c-0.1,0-0.7-0.5-1.3-0.9c-0.7-0.5-1-0.2-1.8,0.2c-1,0.5-2,0-2,0c-0.9,0.6-1.2,2.4-1.2,2.4c-0.2,0.1-0.5,0.2-0.7,0.2
		c-0.7,0-0.8-0.4-0.8-0.6c0-1,1.3-1.5,1.3-2.5c0-0.2-0.1-1.2-1.3-1.2c-0.2,0-1.1,0-1.1,0c-0.5,0-0.6-0.3-0.6-0.5c0,0-0.1,0-0.1,0
		c0,0.1-0.1,0.2-0.1,0.5c0,0.4,0.2,0.7,0.7,0.7c0.2,0,0.4-0.1,0.5-0.1c0,0,0.1,0,0,0c-0.2,0.2-0.2,0.7-0.1,0.8c0,0,0,0,0,0
		c0.1-0.4,0.5-0.8,1.1-0.8c0.7,0,0.7,0.6,0.7,0.7c0,0.8-1.4,1.4-1.4,2.5c0,1.1,1.2,1.4,1.9,1.2c0,1.1-1.3,1.5-1.4,0.7c0,0,0,0-0.1,0
		c-0.2,0.4-0.1,0.8,0.4,0.9c0,0,0,0,0,0c-0.5,0.3-0.2,1.6-0.2,1.9c0,0.5-0.5,0.5-0.5,0.5c0,0,0,0,0,0c0.4,0.5,0.8,0,0.8,0
		c0.3,0.1,0.1,0.4-0.1,0.6c0,0,0,0,0,0.1c0.1,0,0.6,0,0.7-0.4c0.2,0.3,0.6,0.2,0.7,0.1c0.1-0.1,0.6-0.2,0.7,0.3c0,0,0,0,0,0
		c0.4-0.5,0-0.8-0.3-0.8c0,0,0.3-0.3,0.6,0.1c0,0,0,0,0,0c0-0.6-0.5-0.7-0.8-0.4c0-0.1-0.1-0.4,0.4-0.4c0,0,0,0,0,0
		c-0.4-0.4-0.7,0-0.8,0.1c-0.2,0.2-0.6,0.1-0.6,0.1c0.1-2.1,2-1.4,2.3-2.4c0-0.1,0,0,0,0c0.1,0.3,0.7,0.3,0.8-0.2c0,0,0-0.1,0,0
		c-0.5,0.5-1.8-1.2-0.1-2.5c1.4-1.2,2.7-0.5,3.2-0.1c0,0.2-0.1,0.2-0.1,0.2c0,0,0,0,0,0c0.1,0.1,0.3,0,0.4-0.1
		c0.3,0.2,0,0.5-0.1,0.6c0,0,0,0,0,0c0.3,0.1,0.5-0.2,0.5-0.4l0,0v1.2c0,1.7,2,2,4.2,3.4c2.2-1.5,4.2-1.7,4.2-3.4v-1.2l0,0
		c0,0.2,0.2,0.5,0.5,0.4c0,0,0,0,0,0c-0.1-0.1-0.4-0.3-0.1-0.6c0.1,0.1,0.3,0.1,0.4,0.1c0,0,0,0,0,0c-0.1,0-0.2-0.1-0.1-0.2
		c0.5-0.4,1.8-1,3.2,0.1c1.7,1.4,0.4,3.1-0.1,2.5c0,0,0,0,0,0c0.1,0.5,0.8,0.5,0.8,0.2c0,0,0,0,0,0c0.3,1,2.1,0.3,2.3,2.4
		c0,0-0.5,0.1-0.6-0.1c-0.1-0.1-0.4-0.5-0.8-0.1c0,0,0,0,0,0c0.5,0,0.4,0.3,0.4,0.4c-0.3-0.3-0.8-0.2-0.8,0.4c0,0,0,0,0,0
		c0.3-0.4,0.6-0.1,0.6-0.1c-0.2,0-0.6,0.3-0.3,0.8c0,0,0,0,0,0c0.1-0.6,0.6-0.4,0.7-0.3c0.1,0,0.4,0.1,0.7-0.1
		c0.1,0.4,0.6,0.4,0.7,0.4c0,0,0,0,0-0.1c-0.2-0.2-0.5-0.5-0.1-0.6c0,0,0.5,0.4,0.8,0c0,0,0-0.1,0,0c0,0-0.6,0.1-0.5-0.5
		c0-0.4,0.3-1.6-0.2-1.9c0,0,0,0,0,0c0.5-0.1,0.6-0.5,0.4-0.9c0-0.1,0,0-0.1,0c0,0.8-1.3,0.4-1.4-0.7c0.7,0.2,1.9-0.1,1.9-1.2
		c0-1.1-1.4-1.7-1.4-2.5c0-0.1,0-0.7,0.7-0.7c0.5,0,0.9,0.4,1.1,0.8c0,0,0,0,0,0c0.1-0.1,0.1-0.5-0.1-0.8c0,0,0-0.1,0,0
		c0.1,0,0.3,0.1,0.5,0.1c0.4,0,0.7-0.2,0.7-0.7c0-0.3-0.1-0.4-0.1-0.5c0,0,0-0.1-0.1,0c-0.1,0.1-0.2,0.5-0.6,0.5c0,0-0.9,0-1.1,0
		c-1.2,0-1.3,1-1.3,1.2c0,1,1.3,1.4,1.3,2.5c0,0.2-0.1,0.6-0.8,0.6c-0.3,0-0.6-0.1-0.7-0.2c0,0-0.3-1.8-1.2-2.4c0,0-1,0.5-2,0
		c-0.8-0.4-1.1-0.7-1.8-0.2c-0.7,0.5-1.3,1-1.3,0.9l-0.2,0v-4c0.3,0,0.3,0.2,0.3,0.3c0,0.1-0.1,0.2,0.1,0.5c0,0,0,0,0,0
		c0-0.1,0-0.2,0.2-0.2c0.1,0,0.6,0.4,1,0.8c0,0,0.2-0.7,0.8-0.9c-0.3,0-1.7-0.4-1.7-1c0-0.2-0.2-0.2-0.4-0.2c0,0-0.2-0.6-0.7-0.3
		c0,0,0,0,0,0.1c0.2,0,0.3,0.2,0.3,0.4c-0.4-0.1-2.1-0.6-4.1-0.6c-1,0-1.9,0.1-2.6,0.2v1.4h-0.6V123.8 M151.4,138.1
		c-0.1-0.1-0.2-0.2-0.2-0.4v-0.9c-0.2-0.1-0.9-0.3-2.3-0.3c-1.1,0-1.5,0.3-1.5,0.3l-0.3,1.6c0,0,0.5-0.4,2.1-0.3c2,0.1,4,1.3,4,0
		v-0.7C151.7,137.5,151.4,138,151.4,138.1 M163.5,137.5v0.7c0,1.2,2,0.1,4,0c1.6-0.1,2.1,0.3,2.1,0.3l-0.3-1.6
		c0-0.1-0.4-0.3-1.5-0.3c-1.3,0-2,0.3-2.3,0.3v0.9c0,0.2-0.1,0.3-0.2,0.4C165.2,138,165,137.5,163.5,137.5 M158.3,136.8
		c3.2,0,6.4,0.2,6.8,0.6c0,0,0,0,0,0l0-1.7c0-0.5-3.3-0.8-6.8-0.8c-3.5,0-6.8,0.3-6.8,0.8l0,1.7c0,0,0,0.1,0,0
		C152,136.9,155.2,136.8,158.3,136.8 M155.5,128.9l-0.3-0.1l0,0l-0.4-0.2c0,0,0.3,0,0.3,0c0,0,0,0,0,0c-0.2-0.1-0.3-0.3-0.3-0.3
		s0.1,0.1,0.4,0.1c0,0,0,0,0,0c-0.1-0.2-0.2-0.4-0.2-0.4s0.3,0.2,0.4,0.2c0,0,0,0,0,0c-0.1-0.2-0.2-0.4-0.2-0.4l0.3,0.3c0,0,0,0,0,0
		c0-0.1-0.1-0.4-0.1-0.4l0.2,0.4c0,0,0,0,0,0c0-0.1,0-0.4,0-0.4s0.1,0.2,0.2,0.4c0,0,0,0,0,0c0,0,0.1-0.3,0.1-0.3l0,0.4l-0.1,0
		l-0.1,0.5c0.5-0.1,1.1-0.9,1.5-0.9c0.5,0,0.7,0.6,1.7,0.3c0.3,0.4,0.3,0.7,0.4,1.1c0.4,0.4,0.9,0.2,0.9-0.1c0-0.5-0.6-0.6-0.6-1.2
		c0-0.2,0.2-0.6,0.6-0.6c0.2,0,0.6,0.1,0.8,0.1c0.2,0,0.3-0.2,0.3-0.3c0-0.1,0.1,0,0.1,0c0,0.1,0,0.1,0,0.2c0,0.3-0.5,0.4-0.6,0.3
		c0,0,0,0,0,0c0.1,0.1,0.1,0.3,0,0.4c0,0,0,0,0,0c-0.1-0.2-0.3-0.5-0.6-0.5c-0.1,0-0.3,0.1-0.3,0.3c0,0.3,0.6,0.6,0.6,1.2
		c0,0.7-0.7,0.8-1.3,0.7c0,0.6,1,1,1,0.6c0,0,0,0,0,0c0.1,0.2,0.1,0.3-0.1,0.4c0.2,0.1,0.2,0.4,0.2,0.6c0.1,0.3,0.4,0.1,0.4,0.1
		c0,0,0,0,0,0c-0.1,0.3-0.4,0.2-0.4,0.2c-0.2,0.1,0,0.2,0.2,0.3c0,0,0,0,0,0c-0.1,0-0.3,0.1-0.5-0.1c-0.1,0.2-0.3,0.2-0.3,0.2
		c-0.1,0-0.2,0.1-0.2,0.3c0,0,0,0,0,0c-0.3-0.2-0.1-0.4,0-0.5c0,0-0.2-0.1-0.3,0.1c0,0,0,0,0,0c-0.1-0.3,0.1-0.4,0.3-0.3
		c0,0-0.1-0.2-0.4-0.2c0,0,0,0,0,0c0-0.1,0.2-0.3,0.4-0.1c0.1,0.1,0.3,0,0.3,0c-0.4-0.8-1.2-0.1-1.4-0.8c0,0,0,0,0,0
		c0,0.1-0.4,0.1-0.5-0.1c0,0,0,0,0,0c0.1,0.1,0.2,0.1,0.3-0.1c0.1-0.1,0.1-0.3,0.1-0.5c0-0.5-0.5-1.4-1.3-1.4c-0.5,0-1,0.2-1.4,0.5
		l0.4,0.1c0,0.4-0.4,0.6-0.7,0.5l0.1-0.4c-0.1,0-0.2,0.1-0.3,0.2c0,0,0,0,0,0c-0.1-0.2,0.1-0.4,0.2-0.4c0,0,0,0,0,0
		c-0.2,0-0.3,0.1-0.3,0.2c0,0,0,0,0,0C155.5,129.1,155.5,129,155.5,128.9 M156.6,131.8c-0.1,0.2-0.3,0-0.5,0c-0.2,0-0.2,0.1-0.2,0.2
		c0,0,0,0,0,0c-0.2-0.3,0-0.4,0.2-0.4c0,0-0.2-0.2-0.3,0c0,0,0,0,0,0c0-0.3,0.3-0.4,0.4-0.2c0-0.1,0-0.2-0.2-0.2c0,0,0,0,0,0
		c0.1-0.1,0.1-0.1,0.2-0.1c0.2,0,0.2,0.2,0.3,0.2c0.2,0,0.4-0.2,0.5-0.3c0,0-0.2-0.5-0.1-0.8c0,0,0,0,0,0c-0.1,0-0.3,0-0.3-0.2
		c0,0,0,0,0,0c0.1,0.1,0.3,0,0.3-0.1c0.1-0.1,0.5-0.8,1.2-0.8c0.1,0,0.3,0.1,0.5,0.2c-0.2,0.3,0,0.5,0.2,0.5c0,0,0,0,0,0
		c-0.8,0.3-1.2,0.4-1.2,1.1c0,0.4,0.1,0.6,0.3,0.5c0,0,0,0,0,0c-0.1,0.1-0.2,0.1-0.2,0.1c-0.2,0-0.2-0.1-0.3-0.1
		c-0.1,0-0.4,0.2-0.4,0.3c0,0.1,0,0.1,0.1,0.2c0,0,0,0,0,0C156.9,132,156.7,132,156.6,131.8 M158.8,125.1c-0.3,0-0.4,0-0.4,0.1
		C158.5,125.4,158.7,125.4,158.8,125.1 M157.8,125.8c0.2,0,0.4,0,0.4,0c0,0,0,0.1,0,0.1c-0.4,0-0.4,0.2-0.6,0.2
		c-0.2,0-0.3-0.2-0.3-0.4c0,0,0,0,0,0C157.4,125.7,157.6,125.8,157.8,125.8 M153,134.1c0.2,0.3,0.5,0,0.8,0c0.2,0,0.4,0.1,0.4,0.4
		c0,0,0,0,0,0c0.4-0.5,0-0.8-0.3-0.8c0.1,0,0.4-0.3,0.6,0.1c0,0,0,0,0,0c0-0.6-0.5-0.7-0.8-0.4c-0.1-0.2,0.1-0.4,0.4-0.4
		c0,0,0,0,0,0c-0.4-0.4-0.7,0.1-0.8,0.2c-0.2,0.2-0.8-0.2-1-0.4c0,0,0.5-0.5,0.5-1c0,0,0-0.1,0-0.1s0,0,0,0c0.1,0,0.1,0.1,0.2,0
		c0.1,0,0.3,0,0.3-0.5c0,0,0,0,0,0c-0.1,0.1-0.1,0.1-0.2,0.1c-0.4,0-1.3-1.4-2.3-1.4c-0.3,0-0.8,0.2-1,0.5c0.1,0.1,0.1,0.2,0.1,0.3
		c0,0.2-0.2,0.3-0.3,0.3c0,0,0,0,0,0c0.5,0.2,1.5,0.6,1.7,0.7c0.3,0.2,0.2,0.6,0.1,1.2c-0.1,0.6-0.4,0.5-0.6,0.5c0,0,0,0,0,0
		c0.1,0.2,0.3,0.2,0.4,0.2c0.3,0,0.4-0.2,0.5-0.2c0.2,0,0.7,0.3,0.7,0.6c0,0.1-0.1,0.3-0.3,0.4c0,0,0,0,0,0
		C152.4,134.5,152.9,134.5,153,134.1 M164.4,134.5C164.4,134.5,164.4,134.4,164.4,134.5c-0.1-0.1-0.3-0.2-0.3-0.4
		c0-0.3,0.5-0.6,0.7-0.6c0.1,0,0.2,0.2,0.5,0.2c0.1,0,0.3-0.1,0.4-0.2c0,0,0,0,0,0c-0.1,0-0.4,0.1-0.6-0.5c-0.1-0.6-0.2-1,0.1-1.2
		c0.2-0.2,1.2-0.5,1.7-0.7c0,0,0,0,0,0c-0.1,0-0.3-0.1-0.3-0.3c0-0.1,0-0.3,0.1-0.3c-0.3-0.3-0.8-0.5-1-0.5c-1,0-1.9,1.4-2.3,1.4
		c-0.1,0-0.1,0-0.2-0.1c0,0,0,0,0,0c0,0.4,0.2,0.5,0.3,0.5c0.1,0,0.1,0,0.2,0c0,0,0,0,0,0s0,0.1,0,0.1c0,0.5,0.5,1,0.5,1
		c-0.2,0.2-0.8,0.7-1,0.4c-0.1-0.1-0.4-0.6-0.8-0.2c0,0,0,0,0,0c0.2,0,0.4,0.2,0.4,0.4c-0.3-0.3-0.8-0.2-0.8,0.4c0,0,0,0,0,0
		c0.2-0.3,0.6-0.1,0.6-0.1c-0.2,0-0.6,0.3-0.3,0.8c0,0,0,0,0,0c0-0.3,0.2-0.4,0.4-0.4c0.3,0,0.6,0.3,0.8,0
		C163.8,134.5,164.3,134.5,164.4,134.5 M156,126.4c0,0-0.1,0-0.2,0c0,0,0,0,0,0c0,0.1,0.1,0.2,0.3,0.2c0.1,0,0.2,0,0.2-0.1
		c0,0,0.6,0.2,0.9,0.3c-0.1,0.2-0.2,0.3-0.2,0.5c-0.2-0.1-1.2-0.7-1.2-0.7l-0.3,0.4c0,0.1-0.3-0.1-0.2-0.2l0.2-0.3
		c-0.1-0.1-0.3,0-0.3,0c0,0,0,0,0,0c0-0.1,0.1-0.3,0.4-0.2c0-0.2-0.3-0.1-0.3-0.1c0,0,0,0,0,0c0.1-0.1,0.3-0.2,0.5-0.1l0.1-0.1
		l-0.2-0.2l0.1-0.2l0.1,0.2l1.1-1.5c0,0,0.2-0.1,0.3-0.1c0,0.1,0,0.3,0,0.4l-1.1,1.6l0.2,0.1l-0.1,0.2l-0.3-0.1L156,126.4z
		 M160,126.1c0,0.1,0.1,0.3,0.3,0.3c0,0,0,0,0,0c0,0.2-0.3,0.3-0.4,0.1c-0.1,0.2-0.1,0.5,0.2,0.6c0,0,0,0,0,0
		c-0.1,0.1-0.4,0.1-0.5-0.1c-0.2,0.2-0.2,0.5,0,0.6c0,0-0.6,0.3-1.1,0.1c-0.3-0.2-0.6-0.4-1-0.3c0.1-0.6,0.4-0.8,0.9-0.9
		c0.4-0.1,0.5-0.3,0.4-0.4c-0.2,0-0.4,0.1-0.4,0.1c0-0.1,0-0.2,0-0.2c0,0,0-0.1,0-0.1c0.3,0,0.4-0.1,0.4-0.1
		c0.1-0.3-0.3-0.4-0.5-0.2c-0.1-0.1-0.1-0.2-0.1-0.2c0,0-0.1-0.1-0.1-0.1c0-0.1,0.4-0.3,0.5-0.3c0-0.1,0.2-0.3,0.5-0.2
		c0-0.1,0-0.5-0.1-0.6c0,0,0,0,0,0c0.1,0.1,0.3,0.4,0.4,0.4c0,0,0.4-0.2,0.5-0.2c0,0,0.1,0.5,0.1,0.5c0.1,0.1,0.4,0,0.5,0.1
		c0,0,0,0,0,0c-0.1,0-0.5,0.2-0.5,0.3C160.1,125.5,160,126,160,126.1"/>
	<path clip-path="url(#SVGID_2_)" fill="#FA4260" d="M145.1,53L145.1,53C145.1,52.9,145.1,52.9,145.1,53L145.1,53
		c-0.1-0.2-0.2-0.3-0.3-0.5c-0.1-0.1-0.1-0.1-0.2-0.2c-0.1-0.1-0.2-0.2-0.2-0.3c-0.2-0.1-0.3-0.3-0.5-0.4c0,0,0,0,0,0
		c-0.2-0.1-0.4-0.2-0.6-0.4c-0.1,0-0.1,0-0.2-0.1v0c-0.2-0.1-0.4-0.2-0.6-0.2h0c0,0-0.1,0-0.1,0c-0.3-0.1-0.6-0.1-0.9-0.2
		c0,0-0.1,0-0.1,0c-0.3,0-0.6-0.1-1-0.1h-55H43.3c0,0-5.9,0-5.8,6v96.5c0,1.2-0.2,4.1,2.4,6.8c2.3,2.4,17.5,20.2,17.5,20.2l20-21.8
		h48.4c3.2,0,5.6-1.2,6.6-6c0.9-4.4,12.8-90.2,12.8-90.2s0.5-3.3,0.7-4.9C146,56,145.9,54.3,145.1,53"/>
	<path clip-path="url(#SVGID_2_)" fill="#AB3052" d="M74.5,140c-2.1-2.3-3.8-5-5-8c-8.3-20.1,2.1-54.8,16-81.3H43.3c0,0-5.9,0-5.8,6
		v93.5C51.7,150.5,63.8,146.5,74.5,140"/>
	<path clip-path="url(#SVGID_2_)" fill="#991F39" d="M145.1,62.2c0,0,0.5-3.3,0.7-4.9c0.4-2.9-0.6-6.7-5.4-6.7h-55
		c-13.8,26.5-24.2,61.2-16,81.3c1.2,3,2.9,5.7,5,8v0C103.7,122.1,122.4,84.8,145.1,62.2"/>
	<path clip-path="url(#SVGID_2_)" fill="#FF5C33" d="M145.1,62.2L145.1,62.2c-22.8,22.6-41.4,59.9-70.6,77.7
		c2.4,2.5,7.4,7.2,17.9,11c3.1,1.1,12,4.1,23.9,7.4h9.5c3.2,0,5.6-1.2,6.6-6C133.2,148,145.1,62.2,145.1,62.2L145.1,62.2z"/>
	<path clip-path="url(#SVGID_2_)" fill="#C2445C" d="M145.1,62.2L145.1,62.2z"/>
	<path clip-path="url(#SVGID_2_)" fill="#FFFFFF" d="M97.8,103.3c0,1,0,2.1,0.2,5.1L87.5,94.7h-6v24.9h7.1v-8l-0.1-5.4l10.4,13.4h6
		V94.7h-7.1V103.3z"/>
	<path clip-path="url(#SVGID_2_)" fill="#FFFFFF" d="M121.2,111.4c0,2.3-1.5,3.3-3,3.3c-1.2,0-2.5-0.8-2.5-2.9V102h-6.6v9.8
		c0,6.4,3.3,8.3,7,8.3c1.8,0,3.9-0.6,5.4-2.4l0.3,1.9h5.8V102h-6.5V111.4z"/>
	<polygon clip-path="url(#SVGID_2_)" fill="#FFFFFF" points="68.7,80.4 57.5,80.4 68.4,63.6 68.4,61.6 48.4,61.6 48.4,67.3 59,67.3 
		47.8,84.3 47.8,86.5 68.7,86.5 	"/>
	<path clip-path="url(#SVGID_2_)" fill="#FFFFFF" d="M103.3,68.5c-1.7,0-3.3,0.7-4.3,2.4l-0.4-1.9h-5.9v17.6h6.5v-9.2
		c0-2.3,1.3-3.3,3-3.3c1.1,0,1.8,0.2,2.9,1l2.6-4.7C106.8,69.1,105.2,68.5,103.3,68.5"/>
	<path clip-path="url(#SVGID_2_)" fill="#FFFFFF" d="M80.3,86.9c5.8,0,9.5-3.9,9.5-9.4c0-5.2-3.6-9.2-9.4-9.2c-5.7,0-9.4,4-9.4,9.2
		C71.1,83,74.5,86.9,80.3,86.9 M80.4,73.5c2.7,0,3.9,2.1,3.9,4c0,2.2-1.2,4.2-3.9,4.2c-2.7,0-3.9-2.1-3.9-4.2
		C76.6,75.6,77.8,73.5,80.4,73.5"/>
	<path clip-path="url(#SVGID_2_)" fill="#FFFFFF" d="M124.9,83.1c2-1.5,3.2-3.6,3.2-5.8c0.1-1.6-0.4-3.3-1.7-4.7l2.3-2.7l-4.7-3.4
		l-1.9,2.4c-1.2-0.5-2.5-0.7-3.6-0.7c-5.5,0-9.8,3.5-9.8,9c0,5.5,3.9,8.9,9.8,8.9c2.4,0,3.2,1.1,3.2,2.4c0,1.7-1.6,2.5-3.2,2.5
		c-1.7,0-3.4-0.7-3.3-3.4H109c0,0.3,0,0.5,0,0.8c0,5,3.6,7.9,9.5,7.9c5,0,10-2.1,10-7.8C128.4,87.5,128.2,85,124.9,83.1 M118.5,81.1
		c-2.7,0-3.9-2-3.9-3.9c0-1.8,1.2-3.8,3.9-3.8c2.7,0,3.9,2,3.9,3.8C122.4,79.2,121.2,81.1,118.5,81.1"/>
	<polygon clip-path="url(#SVGID_2_)" fill="#FFFFFF" points="52.5,96.8 51.8,99.3 50.9,96.8 50.1,94.7 47.1,94.7 50.4,102.4 
		53.2,102.4 56.4,94.7 53.4,94.7 	"/>
	<path clip-path="url(#SVGID_2_)" fill="#FFFFFF" d="M73.2,94.5c-0.8,0-1.7,0.3-2.4,1l-0.1-0.8h-2.5v7.7H71v-4c0-1,0.6-1.5,1.3-1.5
		c0.5,0,1.1,0.3,1.1,1.3v4.2h2.9v-4.3C76.3,95.4,74.9,94.5,73.2,94.5"/>
	<path clip-path="url(#SVGID_2_)" fill="#FFFFFF" d="M62.9,95.5c-0.4-0.6-1.1-1-2.2-1c-2.2,0-3.7,1.7-3.7,4c0,2.2,1.3,3.8,3.5,4
		c0.9,0,1.9-0.2,2.5-1l0.1,0.8h2.6v-7.7h-2.7L62.9,95.5z M61.3,100.3c-0.9,0-1.7-0.7-1.7-1.8c0-1.2,0.7-1.8,1.7-1.8
		c1.1,0,1.7,0.7,1.7,1.8C63,99.5,62.3,100.3,61.3,100.3"/>
	<path clip-path="url(#SVGID_2_)" fill="#00295A" d="M180.6,37.5c0.1,0-65.6,0-68.5,0c-4.3,0-7.6,1.9-8.1,5.9c-0.4,2.8-1,7.3-1,7.3
		h37.6c4.8,0,5.7,3.8,5.4,6.7c-0.2,1.5-0.7,4.9-0.7,4.9c10.5-10.2,21.8-17.3,35.5-18V37.5z"/>
</g>
</svg>
